# xmcd
#
# Track frame offsets:
# 150
# 20504
# 38535
# 55691
# 73010
# 93222
# 117027
# 135770
# 151911
# 172532
#
# Disc length: 2570 seconds
#
#
# Revision: 0
# Processed by: cddbd v1.5.1PL2 Copyright (c) Steve Scherf et al.
# Submitted via: FreeRIP 2.944 
#
DISCID=640a080a
DTITLE=Dr. Dobro - Dr. Dobro Live
DYEAR=2003
DGENRE=Blues/rock
TTITLE0=Midnight Special
TTITLE1=That's Allright Mama
TTITLE2=Sweet Home Chicago
TTITLE3=If I Had Possesion
TTITLE4=Whole Lotta Shadin' Goin' On
TTITLE5=Hoochie Coochie Man
TTITLE6=Hallelujah I Love Her So
TTITLE7=Come On Into My Kitchen
TTITLE8=Person To Person
TTITLE9=Brown Eyed Girl
EXTD=
EXTT0=
EXTT1=
EXTT2=
EXTT3=
EXTT4=
EXTT5=
EXTT6=
EXTT7=
EXTT8=
EXTT9=
PLAYORDER=
